<svg width="63" height="48" viewBox="0 0 63 48" fill="none" xmlns="http://www.w3.org/2000/svg">
<g clip-path="url(#clip0_4401_27080)">
<path d="M59.751 0H3.48931C1.90739 0 0.620361 1.27822 0.620361 2.84978V34.716C0.620361 36.2876 1.90739 37.5658 3.48931 37.5658H59.751C61.3329 37.5658 62.6199 36.2876 62.6199 34.716V2.84978C62.6199 1.27822 61.3329 0 59.751 0ZM61.1557 34.716C61.1557 35.4853 60.5256 36.1116 59.751 36.1116H3.48931C2.71513 36.1116 2.0846 35.4858 2.0846 34.716V2.84978C2.0846 2.08044 2.71468 1.45422 3.48931 1.45422H59.751C60.5251 1.45422 61.1557 2.08 61.1557 2.84978V34.716Z" fill="#1A2780"/>
<path d="M46.4498 42.4186H36.8509V39.8168C36.8509 39.4155 36.5228 39.0897 36.1187 39.0897C35.7147 39.0897 35.3866 39.4155 35.3866 39.8168V42.4186H27.8542V39.8168C27.8542 39.4155 27.5262 39.0897 27.1221 39.0897C26.718 39.0897 26.39 39.4155 26.39 39.8168V42.4186H16.791C15.3988 42.4186 14.2671 43.5431 14.2671 44.9257V45.4928C14.2671 46.8755 15.3988 47.9999 16.791 47.9999H46.4503C47.8425 47.9999 48.9751 46.8755 48.9751 45.4928V44.9257C48.9751 43.5431 47.8425 42.4186 46.4503 42.4186H46.4498ZM47.5104 45.4928C47.5104 46.0733 47.0347 46.5453 46.4503 46.5453H16.7906C16.2061 46.5453 15.7313 46.0733 15.7313 45.4928V44.9257C15.7313 44.3453 16.2061 43.8733 16.7906 43.8733H46.4498C47.0343 43.8733 47.51 44.3453 47.51 44.9257V45.4928H47.5104Z" fill="#1A2780"/>
<path d="M47.1489 16.3551C50.5691 16.3551 53.3522 13.5911 53.3522 10.1938C53.3522 6.79647 50.6425 2.9458 47.1489 2.9458C43.6552 2.9458 40.9456 6.84225 40.9456 10.1938C40.9456 13.5454 43.7286 16.3551 47.1489 16.3551ZM47.1489 4.40002C49.7014 4.40002 51.8879 7.5858 51.8879 10.1938C51.8879 12.8018 49.7614 14.9009 47.1489 14.9009C44.5363 14.9009 42.4098 12.7894 42.4098 10.1938C42.4098 7.59825 44.5963 4.40002 47.1489 4.40002Z" fill="#21AEE3"/>
<path d="M47.3309 17.2524C41.9492 17.2524 37.5708 21.6009 37.5708 26.9458C37.5708 27.3471 37.8988 27.6729 38.3029 27.6729H56.3584C56.7625 27.6729 57.0905 27.3471 57.0905 26.9458C57.0905 21.6009 52.7121 17.2524 47.3304 17.2524H47.3309ZM39.0677 26.2182C39.4396 22.0147 43.004 18.7067 47.3309 18.7067C51.6578 18.7067 55.2217 22.0142 55.5936 26.2182H39.0677Z" fill="#21AEE3"/>
<path d="M30.0862 25.4911H14.2097C13.9398 25.4911 13.7214 25.708 13.7214 25.976C13.7214 26.244 13.9398 26.4609 14.2097 26.4609H30.0862C30.3561 26.4609 30.5745 26.244 30.5745 25.976C30.5745 25.708 30.3561 25.4911 30.0862 25.4911Z" fill="#1A2780"/>
<path d="M30.0862 31.1476H14.2097C13.9398 31.1476 13.7214 31.3645 13.7214 31.6325C13.7214 31.9005 13.9398 32.1174 14.2097 32.1174H30.0862C30.3561 32.1174 30.5745 31.9005 30.5745 31.6325C30.5745 31.3645 30.3561 31.1476 30.0862 31.1476Z" fill="#1A2780"/>
<path d="M30.0862 19.8347H14.2097C13.9398 19.8347 13.7214 20.0516 13.7214 20.3196C13.7214 20.5876 13.9398 20.8045 14.2097 20.8045H30.0862C30.3561 20.8045 30.5745 20.5876 30.5745 20.3196C30.5745 20.0516 30.3561 19.8347 30.0862 19.8347Z" fill="#1A2780"/>
<path d="M11.5913 17.976H8.33612C7.93202 17.976 7.604 18.3017 7.604 18.7031V21.9355C7.604 22.3368 7.93202 22.6626 8.33612 22.6626H11.5913C11.9954 22.6626 12.3234 22.3368 12.3234 21.9355V18.7031C12.3234 18.3017 11.9954 17.976 11.5913 17.976ZM10.8587 21.2084H9.06824V19.4306H10.8587V21.2084Z" fill="#1A2780"/>
<path d="M11.5913 23.6324H8.33612C7.93202 23.6324 7.604 23.9582 7.604 24.3596V27.592C7.604 27.9933 7.93202 28.3191 8.33612 28.3191H11.5913C11.9954 28.3191 12.3234 27.9933 12.3234 27.592V24.3596C12.3234 23.9582 11.9954 23.6324 11.5913 23.6324ZM10.8587 26.8649H9.06824V25.0871H10.8587V26.8649Z" fill="#1A2780"/>
<path d="M11.5913 29.2893H8.33612C7.93202 29.2893 7.604 29.6151 7.604 30.0164V33.2484C7.604 33.6498 7.93202 33.9755 8.33612 33.9755H11.5913C11.9954 33.9755 12.3234 33.6498 12.3234 33.2484V30.0164C12.3234 29.6151 11.9954 29.2893 11.5913 29.2893ZM10.8587 32.5213H9.06824V30.744H10.8587V32.5213Z" fill="#1A2780"/>
<path d="M8.33567 11.3569H12.2728L14.4222 16.1391C14.5403 16.404 14.8044 16.5698 15.0908 16.5698C15.123 16.5698 15.1565 16.5676 15.1901 16.5631C15.5123 16.5196 15.7669 16.2702 15.8157 15.9502L17.1524 7.0938L18.2909 11.0449C18.3804 11.3574 18.6677 11.5725 18.9943 11.5725H21.7129C22.0611 11.5725 22.3614 11.3289 22.4307 10.9907L22.5471 10.4222L22.8398 13.0089C22.8711 13.2889 23.0631 13.5254 23.3316 13.616C23.6005 13.708 23.8981 13.636 24.0946 13.432L25.9642 11.5045H29.2444C29.6485 11.5045 29.9766 11.1787 29.9766 10.7774C29.9766 10.376 29.6485 10.0502 29.2444 10.0502H25.6528C25.4536 10.0502 25.2639 10.1307 25.1256 10.2734L24.1214 11.3089L23.4833 5.67825C23.4434 5.32269 23.1485 5.04891 22.7883 5.03336C22.4334 4.99602 22.1103 5.26402 22.0378 5.61425L21.1151 10.1191H19.5466L17.6321 3.4738C17.5377 3.14536 17.2356 2.92447 16.8808 2.94758C16.5375 2.9698 16.2552 3.22714 16.2037 3.56536L14.7381 13.2742L13.4166 10.3338C13.2994 10.0716 13.0372 9.90314 12.7481 9.90314H8.33612C7.93202 9.90314 7.604 10.2289 7.604 10.6302C7.604 11.0316 7.93202 11.3574 8.33612 11.3574L8.33567 11.3569Z" fill="#21AEE3"/>
<path d="M56.2899 28.6427H38.3244C37.9203 28.6427 37.5923 28.9685 37.5923 29.3698V33.2485C37.5923 33.6498 37.9203 33.9756 38.3244 33.9756H56.2899C56.694 33.9756 57.022 33.6498 57.022 33.2485V29.3698C57.022 28.9685 56.694 28.6427 56.2899 28.6427ZM55.5574 32.5214H39.0561V30.0969H55.5574V32.5214Z" fill="#21AEE3"/>
</g>
<defs>
<clipPath id="clip0_4401_27080">
<rect width="62" height="48" fill="white" transform="translate(0.620361)"/>
</clipPath>
</defs>
</svg>
