<svg width="682" height="629" viewBox="0 0 682 629" fill="none" xmlns="http://www.w3.org/2000/svg">
<path d="M521.71 457.82V414.26C585.84 414.26 638.02 362.08 638.02 297.95C638.02 233.82 585.84 181.64 521.71 181.64C515.04 181.64 508.2 182.25 501.37 183.45L479.25 187.34L476.04 165.11C466.05 95.81 405.63 43.55 335.5 43.55C265.37 43.55 205.64 95.26 195.12 163.84L191.99 184.24L171.45 182.22C167.57 181.84 163.66 181.64 159.85 181.64C95.72 181.64 43.54 233.82 43.54 297.95C43.54 362.08 95.72 414.26 159.85 414.26V457.82C71.72 457.82 0 386.1 0 297.95C0 209.8 69.66 140.16 156.06 138.12C165.54 102.25 185.71 69.78 214.09 45.22C247.78 16.05 290.9 -0.0100098 335.51 -0.0100098C380.12 -0.0100098 423.74 16.24 457.52 45.75C485.62 70.3 505.56 102.59 514.96 138.23C517.22 138.13 519.47 138.08 521.72 138.08C609.87 138.08 681.59 209.8 681.59 297.95C681.59 386.1 609.87 457.82 521.72 457.82H521.71Z" fill="#21AEE3"/>
<path d="M493.49 628.49H188.09V351.17L306.94 232.32H493.49V628.49ZM227.06 589.52H454.53V271.29H323.09L227.07 367.31V589.52H227.06Z" fill="#1A2780"/>
<path d="M286.12 206.54V330.31H163.86L286.12 206.54Z" fill="#21AEE3"/>
<path d="M418.08 497.71H263.5V541.27H418.08V497.71Z" fill="#21AEE3"/>
<path d="M418.08 424.62H263.5V468.18H418.08V424.62Z" fill="#21AEE3"/>
<path d="M418.08 348.84H340.79V392.4H418.08V348.84Z" fill="#21AEE3"/>
</svg>
