<svg width="42" height="38" viewBox="0 0 42 38" fill="none" xmlns="http://www.w3.org/2000/svg">
<path d="M31.5931 27.6671V25.0375C35.4767 25.0375 38.6365 21.8876 38.6365 18.0163C38.6365 14.145 35.4767 10.9951 31.5931 10.9951C31.1892 10.9951 30.775 11.0319 30.3614 11.1043L29.0219 11.3392L28.8275 9.99723C28.2225 5.81384 24.5637 2.6591 20.3168 2.6591C16.07 2.6591 12.4529 5.78064 11.8159 9.92056L11.6263 11.152L10.3825 11.0301C10.1475 11.0072 9.91074 10.9951 9.68002 10.9951C5.79651 10.9951 2.63665 14.145 2.63665 18.0163C2.63665 21.8876 5.79651 25.0375 9.68002 25.0375V27.6671C4.34314 27.6671 0 23.3382 0 18.0163C0 12.6944 4.21839 8.49109 9.45051 8.36794C10.0246 6.2026 11.246 4.24251 12.9646 2.75991C15.0048 0.999628 17.616 0.029541 20.3174 0.029541C23.0189 0.029541 25.6604 1.01049 27.706 2.7919C29.4076 4.2739 30.6151 6.22313 31.1844 8.37458C31.3212 8.36855 31.4575 8.36553 31.5937 8.36553C36.9318 8.36553 41.275 12.695 41.275 18.0163C41.275 23.3376 36.9318 27.6671 31.5937 27.6671H31.5931Z" fill="white"/>
<path d="M19.5151 14.0544V16.457L19.5647 16.4075H27.5243V35.6179H13.75V22.2039L13.7755 22.1779H11.3901V37.9704H29.8842V14.0544H19.5151Z" fill="white"/>
<path d="M17.3265 12.4988V19.9703H9.92285L17.3265 12.4988Z" fill="white"/>
<path d="M25.3177 30.0752H15.9568V32.7048H25.3177V30.0752Z" fill="white"/>
<path d="M25.3177 25.6628H15.9568V28.2924H25.3177V25.6628Z" fill="white"/>
<path d="M25.3176 21.0889H20.6372V23.7184H25.3176V21.0889Z" fill="white"/>
</svg>
