<svg width="145" height="28" viewBox="0 0 145 28" fill="none" xmlns="http://www.w3.org/2000/svg">
<path d="M18 10.75C18.4142 10.75 18.75 10.4142 18.75 10C18.75 9.58579 18.4142 9.25 18 9.25V10.75ZM9 23L8.46967 23.5303C8.68417 23.7448 9.00676 23.809 9.28701 23.6929C9.56727 23.5768 9.75 23.3033 9.75 23H9ZM5.53033 18.4697C5.23744 18.1768 4.76256 18.1768 4.46967 18.4697C4.17678 18.7626 4.17678 19.2374 4.46967 19.5303L5.53033 18.4697ZM13.5303 19.5303C13.8232 19.2374 13.8232 18.7626 13.5303 18.4697C13.2374 18.1768 12.7626 18.1768 12.4697 18.4697L13.5303 19.5303ZM8.46967 22.4697C8.17678 22.7626 8.17678 23.2374 8.46967 23.5303C8.76256 23.8232 9.23744 23.8232 9.53033 23.5303L8.46967 22.4697ZM18 10V9.25H12V10V10.75H18V10ZM12 10V9.25C9.92893 9.25 8.25 10.9289 8.25 13H9H9.75C9.75 11.7574 10.7574 10.75 12 10.75V10ZM9 13H8.25V23H9H9.75V13H9ZM9 23L9.53033 22.4697L5.53033 18.4697L5 19L4.46967 19.5303L8.46967 23.5303L9 23ZM13 19L12.4697 18.4697L8.46967 22.4697L9 23L9.53033 23.5303L13.5303 19.5303L13 19Z" fill="#4B465C"/>
<path d="M18 10.75C18.4142 10.75 18.75 10.4142 18.75 10C18.75 9.58579 18.4142 9.25 18 9.25V10.75ZM9 23L8.46967 23.5303C8.68417 23.7448 9.00676 23.809 9.28701 23.6929C9.56727 23.5768 9.75 23.3033 9.75 23H9ZM5.53033 18.4697C5.23744 18.1768 4.76256 18.1768 4.46967 18.4697C4.17678 18.7626 4.17678 19.2374 4.46967 19.5303L5.53033 18.4697ZM13.5303 19.5303C13.8232 19.2374 13.8232 18.7626 13.5303 18.4697C13.2374 18.1768 12.7626 18.1768 12.4697 18.4697L13.5303 19.5303ZM8.46967 22.4697C8.17678 22.7626 8.17678 23.2374 8.46967 23.5303C8.76256 23.8232 9.23744 23.8232 9.53033 23.5303L8.46967 22.4697ZM18 10V9.25H12V10V10.75H18V10ZM12 10V9.25C9.92893 9.25 8.25 10.9289 8.25 13H9H9.75C9.75 11.7574 10.7574 10.75 12 10.75V10ZM9 13H8.25V23H9H9.75V13H9ZM9 23L9.53033 22.4697L5.53033 18.4697L5 19L4.46967 19.5303L8.46967 23.5303L9 23ZM13 19L12.4697 18.4697L8.46967 22.4697L9 23L9.53033 23.5303L13.5303 19.5303L13 19Z" fill="white" fill-opacity="0.5"/>
<rect x="26" width="119" height="24" rx="4" fill="#25AEE4" fill-opacity="0.16"/>
<path d="M40.108 17.13C39.5793 17.13 39.094 17.065 38.652 16.935C38.21 16.7963 37.8113 16.5927 37.456 16.324C37.1007 16.0553 36.7843 15.7303 36.507 15.349L37.612 14.101C38.0367 14.6903 38.4527 15.0977 38.86 15.323C39.2673 15.5483 39.7267 15.661 40.238 15.661C40.5327 15.661 40.8013 15.6177 41.044 15.531C41.2867 15.4357 41.4773 15.31 41.616 15.154C41.7547 14.9893 41.824 14.803 41.824 14.595C41.824 14.4477 41.7937 14.3133 41.733 14.192C41.681 14.062 41.5987 13.9493 41.486 13.854C41.3733 13.75 41.2347 13.6547 41.07 13.568C40.9053 13.4813 40.719 13.4077 40.511 13.347C40.303 13.2863 40.0733 13.23 39.822 13.178C39.3453 13.0827 38.9293 12.957 38.574 12.801C38.2187 12.6363 37.9197 12.437 37.677 12.203C37.4343 11.9603 37.2567 11.6917 37.144 11.397C37.0313 11.0937 36.975 10.7513 36.975 10.37C36.975 9.98867 37.0573 9.63767 37.222 9.317C37.3953 8.99633 37.6293 8.719 37.924 8.485C38.2187 8.251 38.561 8.069 38.951 7.939C39.341 7.809 39.7613 7.744 40.212 7.744C40.7233 7.744 41.1783 7.80467 41.577 7.926C41.9843 8.04733 42.3397 8.22933 42.643 8.472C42.955 8.706 43.2107 8.992 43.41 9.33L42.292 10.435C42.1187 10.1663 41.9237 9.94533 41.707 9.772C41.4903 9.59 41.2563 9.45567 41.005 9.369C40.7537 9.27367 40.4893 9.226 40.212 9.226C39.9 9.226 39.627 9.26933 39.393 9.356C39.1677 9.44267 38.99 9.56833 38.86 9.733C38.73 9.889 38.665 10.0797 38.665 10.305C38.665 10.4783 38.704 10.6343 38.782 10.773C38.86 10.903 38.9683 11.02 39.107 11.124C39.2543 11.228 39.4407 11.319 39.666 11.397C39.8913 11.475 40.147 11.5443 40.433 11.605C40.9097 11.7003 41.3387 11.8303 41.72 11.995C42.1013 12.151 42.4263 12.3417 42.695 12.567C42.9637 12.7837 43.1673 13.035 43.306 13.321C43.4447 13.5983 43.514 13.9103 43.514 14.257C43.514 14.855 43.371 15.3707 43.085 15.804C42.8077 16.2287 42.4133 16.558 41.902 16.792C41.3907 17.0173 40.7927 17.13 40.108 17.13ZM47.6734 17.13C47.1101 17.13 46.5987 16.974 46.1394 16.662C45.6801 16.35 45.3117 15.9253 45.0344 15.388C44.7571 14.8507 44.6184 14.2397 44.6184 13.555C44.6184 12.8703 44.7571 12.2593 45.0344 11.722C45.3117 11.1847 45.6887 10.7643 46.1654 10.461C46.6421 10.1577 47.1794 10.006 47.7774 10.006C48.1241 10.006 48.4404 10.058 48.7264 10.162C49.0124 10.2573 49.2637 10.396 49.4804 10.578C49.6971 10.76 49.8747 10.968 50.0134 11.202C50.1607 11.436 50.2604 11.6873 50.3124 11.956L49.9614 11.865V10.149H51.5734V17H49.9484V15.362L50.3254 15.297C50.2647 15.531 50.1521 15.7607 49.9874 15.986C49.8314 16.2027 49.6321 16.3977 49.3894 16.571C49.1554 16.7357 48.8911 16.87 48.5964 16.974C48.3104 17.078 48.0027 17.13 47.6734 17.13ZM48.1154 15.713C48.4881 15.713 48.8174 15.622 49.1034 15.44C49.3894 15.258 49.6104 15.0067 49.7664 14.686C49.9311 14.3567 50.0134 13.9797 50.0134 13.555C50.0134 13.139 49.9311 12.7707 49.7664 12.45C49.6104 12.1293 49.3894 11.878 49.1034 11.696C48.8174 11.514 48.4881 11.423 48.1154 11.423C47.7427 11.423 47.4134 11.514 47.1274 11.696C46.8501 11.878 46.6334 12.1293 46.4774 12.45C46.3214 12.7707 46.2434 13.139 46.2434 13.555C46.2434 13.9797 46.3214 14.3567 46.4774 14.686C46.6334 15.0067 46.8501 15.258 47.1274 15.44C47.4134 15.622 47.7427 15.713 48.1154 15.713ZM55.4719 17L52.5859 10.149H54.3279L56.2779 15.271L55.9399 15.362L57.9939 10.149H59.6969L56.6679 17H55.4719ZM63.8872 17.13C63.1679 17.13 62.5309 16.9783 61.9762 16.675C61.4302 16.3717 61.0012 15.96 60.6892 15.44C60.3859 14.9113 60.2342 14.309 60.2342 13.633C60.2342 13.0957 60.3209 12.606 60.4942 12.164C60.6676 11.722 60.9059 11.3407 61.2092 11.02C61.5212 10.6907 61.8896 10.4393 62.3142 10.266C62.7476 10.084 63.2199 9.993 63.7312 9.993C64.1819 9.993 64.6022 10.0797 64.9922 10.253C65.3822 10.4263 65.7202 10.6647 66.0062 10.968C66.2922 11.2627 66.5089 11.618 66.6562 12.034C66.8122 12.4413 66.8859 12.8877 66.8772 13.373L66.8642 13.932H61.3132L61.0142 12.84H65.5252L65.3172 13.061V12.775C65.2912 12.5063 65.2046 12.2723 65.0572 12.073C64.9099 11.865 64.7192 11.7047 64.4852 11.592C64.2599 11.4707 64.0086 11.41 63.7312 11.41C63.3066 11.41 62.9469 11.4923 62.6522 11.657C62.3662 11.8217 62.1496 12.06 62.0022 12.372C61.8549 12.6753 61.7812 13.0567 61.7812 13.516C61.7812 13.958 61.8722 14.3437 62.0542 14.673C62.2449 15.0023 62.5092 15.258 62.8472 15.44C63.1939 15.6133 63.5969 15.7 64.0562 15.7C64.3769 15.7 64.6716 15.648 64.9402 15.544C65.2089 15.44 65.4992 15.2537 65.8112 14.985L66.6042 16.09C66.3702 16.3067 66.1016 16.493 65.7982 16.649C65.5036 16.7963 65.1916 16.9133 64.8622 17C64.5329 17.0867 64.2079 17.13 63.8872 17.13ZM74.4937 17.13C73.9997 17.13 73.5707 17.0217 73.2067 16.805C72.8427 16.5797 72.5654 16.2633 72.3747 15.856C72.184 15.44 72.0887 14.946 72.0887 14.374V10.149H73.6877V14.036C73.6877 14.4 73.744 14.712 73.8567 14.972C73.9694 15.2233 74.134 15.4183 74.3507 15.557C74.5674 15.6957 74.8274 15.765 75.1307 15.765C75.356 15.765 75.5597 15.7303 75.7417 15.661C75.9324 15.583 76.097 15.479 76.2357 15.349C76.3744 15.2103 76.4827 15.05 76.5607 14.868C76.6387 14.6773 76.6777 14.4737 76.6777 14.257V10.149H78.2767V17H76.7167L76.6907 15.57L76.9767 15.414C76.8727 15.7433 76.695 16.038 76.4437 16.298C76.201 16.5493 75.9107 16.753 75.5727 16.909C75.2347 17.0563 74.875 17.13 74.4937 17.13ZM80.1508 19.86V10.149H81.7238L81.7498 11.709L81.4768 11.592C81.5288 11.3233 81.6762 11.072 81.9188 10.838C82.1615 10.5953 82.4562 10.4003 82.8028 10.253C83.1582 10.1057 83.5265 10.032 83.9078 10.032C84.5145 10.032 85.0518 10.1837 85.5198 10.487C85.9965 10.7903 86.3692 11.2063 86.6378 11.735C86.9152 12.2637 87.0538 12.8747 87.0538 13.568C87.0538 14.2527 86.9152 14.8637 86.6378 15.401C86.3692 15.9297 85.9965 16.35 85.5198 16.662C85.0518 16.9653 84.5232 17.117 83.9338 17.117C83.5352 17.117 83.1495 17.039 82.7768 16.883C82.4128 16.727 82.1008 16.5233 81.8408 16.272C81.5895 16.0207 81.4335 15.7563 81.3728 15.479L81.7628 15.297V19.86H80.1508ZM83.6088 15.7C83.9728 15.7 84.2978 15.609 84.5838 15.427C84.8698 15.245 85.0908 14.9937 85.2468 14.673C85.4115 14.3523 85.4938 13.984 85.4938 13.568C85.4938 13.152 85.4158 12.788 85.2598 12.476C85.1038 12.1553 84.8828 11.904 84.5968 11.722C84.3108 11.54 83.9815 11.449 83.6088 11.449C83.2275 11.449 82.8938 11.54 82.6078 11.722C82.3305 11.8953 82.1095 12.1423 81.9448 12.463C81.7802 12.7837 81.6978 13.152 81.6978 13.568C81.6978 13.984 81.7802 14.3523 81.9448 14.673C82.1095 14.9937 82.3305 15.245 82.6078 15.427C82.8938 15.609 83.2275 15.7 83.6088 15.7ZM93.0413 17V8.407H94.6403V17H93.0413ZM91.6893 11.631V10.149H96.1353V11.631H91.6893ZM100.423 17.13C99.7378 17.13 99.1268 16.9783 98.5895 16.675C98.0522 16.363 97.6275 15.9383 97.3155 15.401C97.0035 14.8637 96.8475 14.2527 96.8475 13.568C96.8475 12.8833 97.0035 12.2723 97.3155 11.735C97.6275 11.1977 98.0522 10.7773 98.5895 10.474C99.1268 10.162 99.7378 10.006 100.423 10.006C101.099 10.006 101.705 10.162 102.243 10.474C102.78 10.7773 103.2 11.1977 103.504 11.735C103.816 12.2723 103.972 12.8833 103.972 13.568C103.972 14.2527 103.816 14.8637 103.504 15.401C103.2 15.9383 102.78 16.363 102.243 16.675C101.705 16.9783 101.099 17.13 100.423 17.13ZM100.423 15.713C100.795 15.713 101.125 15.6177 101.411 15.427C101.705 15.2363 101.935 14.9807 102.1 14.66C102.273 14.3393 102.355 13.9753 102.347 13.568C102.355 13.152 102.273 12.7837 102.1 12.463C101.935 12.1423 101.705 11.891 101.411 11.709C101.125 11.5183 100.795 11.423 100.423 11.423C100.05 11.423 99.7118 11.5183 99.4085 11.709C99.1138 11.891 98.8842 12.1467 98.7195 12.476C98.5548 12.7967 98.4725 13.1607 98.4725 13.568C98.4725 13.9753 98.5548 14.3393 98.7195 14.66C98.8842 14.9807 99.1138 15.2363 99.4085 15.427C99.7118 15.6177 100.05 15.713 100.423 15.713ZM111.082 16.363V8.979L111.563 9.603L109.717 10.539L109.34 9.057L111.823 7.77H112.759V16.363H111.082ZM109.561 17V15.44H114.319V17H109.561ZM119.174 17.13C118.437 17.13 117.805 16.9437 117.276 16.571C116.756 16.1897 116.353 15.6523 116.067 14.959C115.79 14.257 115.651 13.4207 115.651 12.45C115.651 11.4793 115.79 10.6473 116.067 9.954C116.353 9.252 116.756 8.71467 117.276 8.342C117.805 7.96067 118.437 7.77 119.174 7.77C119.911 7.77 120.543 7.96067 121.072 8.342C121.601 8.71467 122.004 9.252 122.281 9.954C122.567 10.6473 122.71 11.4793 122.71 12.45C122.71 13.4207 122.567 14.257 122.281 14.959C122.004 15.6523 121.601 16.1897 121.072 16.571C120.543 16.9437 119.911 17.13 119.174 17.13ZM119.174 15.648C119.781 15.648 120.249 15.3707 120.578 14.816C120.916 14.2527 121.085 13.464 121.085 12.45C121.085 11.4273 120.916 10.6343 120.578 10.071C120.249 9.50767 119.781 9.226 119.174 9.226C118.567 9.226 118.095 9.50767 117.757 10.071C117.428 10.6343 117.263 11.4273 117.263 12.45C117.263 13.464 117.428 14.2527 117.757 14.816C118.095 15.3707 118.567 15.648 119.174 15.648ZM125.152 17L131.171 7.9H132.718L126.634 17H125.152ZM125.893 12.723C125.486 12.723 125.122 12.6147 124.801 12.398C124.489 12.1813 124.242 11.8867 124.06 11.514C123.887 11.1413 123.8 10.7167 123.8 10.24C123.8 9.75467 123.887 9.32567 124.06 8.953C124.242 8.57167 124.489 8.27267 124.801 8.056C125.122 7.83933 125.49 7.731 125.906 7.731C126.314 7.731 126.673 7.83933 126.985 8.056C127.306 8.27267 127.553 8.57167 127.726 8.953C127.908 9.32567 127.999 9.75467 127.999 10.24C127.999 10.708 127.908 11.1327 127.726 11.514C127.544 11.8867 127.293 12.1813 126.972 12.398C126.652 12.6147 126.292 12.723 125.893 12.723ZM125.906 11.618C126.071 11.618 126.214 11.5617 126.335 11.449C126.457 11.3363 126.552 11.1803 126.621 10.981C126.691 10.773 126.725 10.526 126.725 10.24C126.725 9.954 126.691 9.707 126.621 9.499C126.552 9.291 126.457 9.13067 126.335 9.018C126.214 8.90533 126.067 8.849 125.893 8.849C125.729 8.849 125.581 8.90967 125.451 9.031C125.33 9.14367 125.235 9.304 125.165 9.512C125.096 9.71133 125.061 9.954 125.061 10.24C125.061 10.526 125.092 10.773 125.152 10.981C125.222 11.1803 125.321 11.3363 125.451 11.449C125.581 11.5617 125.733 11.618 125.906 11.618ZM132.068 17.117C131.661 17.117 131.297 17.0087 130.976 16.792C130.664 16.5753 130.417 16.2807 130.235 15.908C130.053 15.5353 129.962 15.1107 129.962 14.634C129.962 14.1487 130.049 13.7197 130.222 13.347C130.404 12.9657 130.656 12.6667 130.976 12.45C131.297 12.2333 131.661 12.125 132.068 12.125C132.484 12.125 132.848 12.2333 133.16 12.45C133.472 12.6667 133.715 12.9657 133.888 13.347C134.07 13.7197 134.161 14.1487 134.161 14.634C134.161 15.102 134.07 15.5267 133.888 15.908C133.706 16.2807 133.455 16.5753 133.134 16.792C132.822 17.0087 132.467 17.117 132.068 17.117ZM132.068 16.025C132.233 16.025 132.376 15.9687 132.497 15.856C132.627 15.7347 132.727 15.5743 132.796 15.375C132.866 15.167 132.9 14.92 132.9 14.634C132.9 14.3567 132.866 14.114 132.796 13.906C132.727 13.698 132.627 13.5377 132.497 13.425C132.376 13.3037 132.233 13.243 132.068 13.243C131.895 13.243 131.743 13.2993 131.613 13.412C131.492 13.5247 131.397 13.6893 131.327 13.906C131.258 14.114 131.223 14.3567 131.223 14.634C131.223 14.92 131.258 15.167 131.327 15.375C131.397 15.5743 131.492 15.7347 131.613 15.856C131.743 15.9687 131.895 16.025 132.068 16.025Z" fill="#25AEE4"/>
</svg>
