<svg width="17" height="17" viewBox="0 0 17 17" fill="none" xmlns="http://www.w3.org/2000/svg">
<path d="M16.3491 7.00111C13.8396 6.99987 11.3302 7.00049 8.82077 7.00078C8.8211 8.04162 8.81953 9.08246 8.82139 10.123C10.2747 10.1227 11.728 10.1224 13.181 10.123C13.0125 11.1204 12.4198 12.0325 11.5792 12.594C11.0508 12.9493 10.4437 13.1799 9.81784 13.2895C9.18792 13.397 8.53703 13.4108 7.90867 13.2836C7.26967 13.1561 6.65972 12.8899 6.12761 12.5146C5.27677 11.9168 4.62743 11.0422 4.29404 10.0579C3.95313 9.05681 3.95062 7.94284 4.2956 6.94264C4.53495 6.23771 4.93335 5.58652 5.45672 5.05659C6.10228 4.39571 6.94158 3.92327 7.84584 3.72953C8.62014 3.56425 9.43661 3.59579 10.1947 3.82513C10.839 4.02076 11.433 4.37383 11.9195 4.83846C12.4113 4.34944 12.9007 3.85762 13.3916 3.36768C13.649 3.10397 13.9196 2.8518 14.169 2.5809C13.4234 1.89095 12.5495 1.33634 11.5945 0.985743C9.87533 0.353025 7.93647 0.339596 6.20571 0.938626C4.25527 1.60636 2.5945 3.06495 1.67368 4.90854C1.35309 5.54379 1.11903 6.22184 0.978431 6.91926C0.62471 8.65688 0.871255 10.5095 1.67274 12.0922C2.19363 13.1252 2.94041 14.0435 3.84628 14.7635C4.70089 15.445 5.69702 15.9483 6.75317 16.2293C8.08585 16.5867 9.50444 16.5786 10.8459 16.2733C12.0583 15.9943 13.2053 15.415 14.1212 14.5694C15.0892 13.6798 15.7798 12.5077 16.1453 11.2482C16.5441 9.87429 16.5991 8.40754 16.3491 7.00111Z" fill="#1A2680"/>
</svg>
