<svg width="20" height="17" viewBox="0 0 20 17" fill="none" xmlns="http://www.w3.org/2000/svg">
<path d="M19.8209 2.39399C19.0971 2.71572 18.3182 2.93273 17.5009 3.02985C18.3354 2.53027 18.9752 1.73895 19.277 0.794949C18.4964 1.25816 17.6324 1.59427 16.7119 1.77572C15.9754 0.990783 14.9255 0.5 13.7637 0.5C11.5332 0.5 9.72469 2.30846 9.72469 4.53937C9.72469 4.8555 9.76026 5.16364 9.8294 5.45978C6.47226 5.29113 3.49559 3.68329 1.50328 1.23937C1.15558 1.83566 0.956546 2.52947 0.956546 3.27044C0.956546 4.67165 1.66954 5.9082 2.75342 6.63239C2.09158 6.61121 1.46851 6.42936 0.923773 6.12682C0.923374 6.1436 0.923374 6.16079 0.923374 6.17797C0.923374 8.13471 2.31579 9.76692 4.16382 10.1386C3.82491 10.2305 3.46801 10.2801 3.09952 10.2801C2.83895 10.2801 2.58596 10.2549 2.33937 10.2073C2.85373 11.812 4.34526 12.9802 6.11256 13.0126C4.73014 14.096 2.98882 14.7419 1.09603 14.7419C0.770304 14.7419 0.448577 14.7227 0.132446 14.6851C1.92053 15.8318 4.04352 16.5 6.32438 16.5C13.7545 16.5 17.817 10.3452 17.817 5.00737C17.817 4.83232 17.8134 4.65767 17.8058 4.48421C18.5947 3.9159 19.2798 3.2041 19.8209 2.39399Z" fill="#1A2680"/>
</svg>
