<svg width="56" height="48" viewBox="0 0 56 48" fill="none" xmlns="http://www.w3.org/2000/svg">
<g clip-path="url(#clip0_4401_27120)">
<path d="M55.1204 43.1071C55.1204 45.8089 52.9458 48 50.2644 48H4.97629C2.29492 48 0.120361 45.8089 0.120361 43.1071V4.89289C0.120361 2.19111 2.29492 0 4.97629 0H50.2649C52.9462 0 55.1208 2.19111 55.1208 4.89289V43.1071M14.4888 34.2387L12.2489 31.0316C12.2216 30.9933 12.2026 30.9493 12.1942 30.9027C12.099 30.4302 11.7853 30.3289 11.2843 30.4467C9.23498 30.9271 7.31934 31.5671 5.53735 32.3631C4.90262 32.6484 4.39582 33.0578 4.01957 33.5902C3.9759 33.6507 3.95429 33.7249 3.95429 33.7991V37.4262C3.95429 37.5031 3.89165 37.5662 3.81535 37.5662H2.57016C2.48018 37.5662 2.40651 37.492 2.40387 37.4013C2.35755 35.9436 2.34123 34.7351 2.3602 33.7742C2.39549 31.7724 3.72801 31.1276 5.38209 30.496C6.12576 30.2107 6.94883 29.8947 7.84556 29.5462C8.66862 29.2276 9.37966 29.0191 9.97645 28.92C10.9574 28.7609 11.369 28.4698 11.6168 27.5636C11.7042 27.2449 11.5026 27.0142 11.2653 26.8276C11.1943 26.7724 11.1453 26.6902 11.129 26.5996C11.099 26.4156 10.9711 26.1493 10.7501 25.8031C10.4475 25.328 10.167 24.8231 9.91337 24.2929C9.8697 24.2049 9.80972 24.1253 9.73914 24.0622C8.65451 23.1124 7.98141 22.5164 7.7172 22.2773C6.80988 21.4538 6.85046 20.232 7.00043 19.0182C7.03307 18.752 7.27832 18.1013 7.73352 17.0662C7.73617 17.0578 7.73881 17.0471 7.7419 17.036L8.05243 12.6071C8.05507 12.5658 8.0661 12.5218 8.07977 12.4809L8.68759 10.6769C8.71494 10.5973 8.75287 10.5204 8.79918 10.4489C9.1944 9.84756 9.82383 9.22711 10.6932 8.58711C11.2516 8.17822 11.9168 7.89511 12.6935 7.74133C13.8518 7.51333 14.5739 7.39556 14.8655 7.38444C15.9307 7.34578 17.2716 7.46933 18.893 7.75511C19.9419 7.94178 20.8439 8.27956 21.6017 8.76533C22.3428 9.24311 23.0979 10.1462 23.8689 11.4724C24.2015 12.0436 24.2968 12.7409 24.4983 13.6716C24.6183 14.2178 24.6889 14.7889 24.7136 15.3822C24.7762 16.9333 24.8472 18.4849 24.9236 20.0391C24.9262 20.1271 24.9099 20.212 24.8746 20.2947L24.3625 21.4587C24.3246 21.544 24.2782 21.6262 24.2236 21.7004C22.8147 23.6636 21.3649 25.6924 19.5802 27.4169C19.406 27.5871 19.425 27.8724 19.6182 28.0182L20.6971 28.8311C20.7218 28.8502 20.7513 28.864 20.7813 28.8724C23.5306 29.5178 25.3783 30.0587 26.324 30.4951C28.0434 31.2858 29.3049 32.1098 30.1906 33.7627C30.4742 34.2871 30.6647 35.1164 30.76 36.2449C30.8337 37.1124 30.88 37.9662 30.8963 38.804C30.899 38.8973 30.9726 38.9716 31.0652 38.9716H53.3609C53.4209 38.9716 53.4672 38.9249 53.4672 38.8644C53.4619 17.7693 53.4561 6.65467 53.4535 5.51822C53.4508 3.61289 52.8104 2.87956 51.1263 1.924C51.0121 1.85822 50.8837 1.81689 50.7532 1.80311C50.0748 1.72622 49.6932 1.688 49.6085 1.688C32.3162 1.69333 17.6394 1.69333 5.5819 1.688C4.93085 1.688 4.41302 1.75644 4.02883 1.89378C3.53305 2.07244 3.08049 2.34133 2.66896 2.70356C1.69901 3.56311 1.76958 4.49644 1.76958 5.90489C1.76694 15.4871 1.76959 26.4729 1.77797 38.864C1.77797 38.9191 1.82428 38.9658 1.88162 38.9658H14.9885C15.0511 38.9658 15.1058 38.9164 15.1111 38.8533C15.2501 37.3596 15.2174 36.1267 15.0075 35.1578C14.9149 34.7267 14.8196 34.4578 14.7212 34.356C14.6476 34.2764 14.5849 34.2436 14.5333 34.2542C14.517 34.2569 14.5007 34.2516 14.4896 34.2378M19.2547 12.9787C19.2821 12.9373 19.3226 12.9129 19.38 12.8991C19.4373 12.8853 19.5136 12.9209 19.6036 13.0062C20.4267 13.7587 20.9172 14.2169 21.0751 14.3844C21.1703 14.4804 21.255 14.5876 21.3287 14.7058L22.5033 16.6142C22.5249 16.6498 22.5386 16.6938 22.536 16.7378C22.5307 16.9436 22.6176 17.0316 22.7975 17.0067C22.9691 16.9818 23.0564 16.8942 23.0591 16.7431C23.0891 15.4222 22.9717 14.1458 22.7049 12.9129C22.6859 12.8196 22.6533 12.7262 22.607 12.6409C22.0022 11.4684 21.2691 10.3373 20.0072 9.85956C19.0778 9.50533 18.4541 9.324 18.1299 9.316C17.6994 9.30222 16.9284 9.23644 15.8164 9.11822C14.8707 9.01956 13.2414 9.11022 12.1978 9.64533C11.533 9.98578 11.1378 10.2276 11.0126 10.3676C9.96895 11.5347 9.53007 12.9267 9.699 14.5436C9.70738 14.6258 9.78634 14.6782 9.86529 14.656L11.2278 14.2413C11.2357 14.2387 11.2415 14.2387 11.2494 14.2387C11.7046 14.2084 12.0641 14.2169 12.323 14.2689C12.6036 14.3209 12.9035 14.3044 13.2277 14.2169C14.146 13.9671 15.2633 13.7227 16.5769 13.4893C16.6342 13.4782 16.6911 13.4893 16.7405 13.5196C16.7432 13.5196 16.7542 13.5249 16.7679 13.536C16.8931 13.6102 17.0484 13.6044 17.1657 13.5222C17.2531 13.4618 17.392 13.4204 17.5825 13.396C17.6889 13.3822 17.7925 13.344 17.8825 13.2809C18.3267 12.9707 18.7325 12.8853 19.1003 13.0284C19.1577 13.0502 19.2229 13.0311 19.2556 12.9791M23.1733 20.1973C23.258 19.9391 23.026 19.684 22.7428 19.7222C21.9797 19.8293 21.4187 18.7751 21.2387 18.1133C20.9472 17.04 20.3967 16.0182 19.6693 15.2827C19.5714 15.184 19.4267 15.1427 19.2931 15.1809C19.0262 15.2551 18.8216 15.0738 18.4621 15.0987C16.5001 15.236 14.5982 15.5187 12.7535 15.9498C12.383 16.0351 12.1651 16.1693 11.6746 16.1364C11.5167 16.1253 11.3641 16.208 11.2878 16.3507C11.0915 16.7187 11.0152 17.1467 11.0562 17.6356C11.0642 17.7236 11.1405 17.7867 11.2278 17.7782H11.2552C11.3531 17.7947 11.4188 17.888 11.3994 17.9867C11.1652 19.2004 10.3231 18.7964 9.81633 19.5409C9.75899 19.6231 9.66901 19.6729 9.57109 19.6729H9.13794C8.77272 19.6729 8.50586 20.0244 8.60378 20.3787C8.69377 20.708 8.87064 21.4329 9.35584 21.3947C9.4295 21.3893 9.50316 21.4084 9.56579 21.4524L9.93631 21.7133C10.0153 21.7711 10.1242 21.7573 10.1899 21.6831C10.3805 21.4636 10.6257 21.5182 10.9257 21.848C10.9667 21.892 10.9936 21.9498 11.0046 22.0102C11.0099 22.0431 11.1819 22.5924 11.5198 23.6547C11.964 25.052 12.9286 25.9116 14.4085 26.2329C14.4632 26.2467 14.5174 26.252 14.5748 26.252C15.0242 26.2631 15.6431 26.2822 16.4331 26.3071C18.365 26.3676 20.0928 24.72 21.1337 23.1164C21.8121 22.0702 22.7794 21.4084 23.1746 20.1978M9.59888 16.4036C9.53227 16.3889 9.45067 16.4822 9.42112 16.6156C9.39068 16.7484 9.42068 16.8693 9.48772 16.8849C9.55433 16.8996 9.63593 16.8062 9.66548 16.6729C9.69591 16.54 9.66592 16.4191 9.59888 16.4036ZM13.2109 28.8404C13.012 29.0382 12.9873 29.3564 13.1536 29.5844L15.4971 32.8107C15.6907 33.0769 16.0992 33.0329 16.2302 32.7311C16.6744 31.7262 17.4317 31.0151 18.0832 30.1116C18.5653 29.4387 18.579 28.7964 18.0616 28.2004C18.0179 28.1511 17.9579 28.1262 17.8953 28.1289L13.8814 28.2662C13.8135 28.2689 13.7477 28.2991 13.6988 28.3458L13.2109 28.84M29.1518 38.9693C29.2797 38.9693 29.3781 38.8596 29.3671 38.7333L29.1192 35.9436C29.1081 35.8173 29.0755 35.6964 29.0239 35.584C28.9776 35.4742 28.8439 35.128 28.6234 34.5489C28.0619 33.0853 26.3209 32.2342 24.8195 31.7924C22.9748 31.2462 21.5223 30.8093 20.4598 30.4827C20.2798 30.4276 20.0835 30.4773 19.9529 30.6147C19.1409 31.4631 18.3562 32.5009 17.5984 33.7338C17.0616 34.6098 16.7101 35.6613 16.759 36.8911C16.7837 37.4649 16.7127 38.0636 16.5464 38.684C16.5054 38.8267 16.6144 38.9698 16.7643 38.9698H29.1518M53.371 40.6498H1.88603C1.80178 40.6498 1.73342 40.7182 1.73342 40.8036V42.816C1.73342 44.6884 3.29222 46.2071 5.2158 46.2071H50.0412C51.9653 46.2071 53.5236 44.6889 53.5236 42.816V40.8036C53.5236 40.7182 53.4557 40.6498 53.371 40.6498Z" fill="#1A2780"/>
<path d="M31.2553 30.0431H31.1843C30.7511 30.0622 30.3912 29.7107 30.3912 29.2742C30.4159 19.5573 30.4102 12.8933 30.3749 9.28846C30.3665 8.32179 30.849 7.84979 31.8247 7.87157C33.0099 7.89913 38.5442 7.90446 48.4224 7.88535C48.8555 7.88268 49.1934 8.26135 49.1471 8.69513L49.1387 8.77468C49.1061 9.21113 48.7435 9.54624 48.3103 9.54624H32.2385C32.1185 9.54624 32.0232 9.64224 32.0232 9.76046V29.252C32.0232 29.6831 31.6827 30.0347 31.2548 30.0427L31.2553 30.0431Z" fill="#21AEE3"/>
<path d="M49.0687 14.3901C49.0687 14.7937 48.7445 15.1203 48.344 15.1203H37.9728C37.5722 15.1203 37.248 14.7937 37.248 14.3901V14.187C37.248 13.7835 37.5722 13.4568 37.9728 13.4568H48.344C48.7445 13.4568 49.0687 13.7835 49.0687 14.187V14.3901Z" fill="#21AEE3"/>
<path d="M48.9513 28.7419C48.9513 29.365 48.4497 29.8703 47.8313 29.8703H35.8907C35.2723 29.8703 34.7708 29.365 34.7708 28.7419V19.533C34.7708 18.9099 35.2723 18.4045 35.8907 18.4045H47.8313C48.4497 18.4045 48.9513 18.9099 48.9513 19.533V28.7419ZM36.3948 20.4361V28.0472C36.3948 28.113 36.4464 28.1681 36.5122 28.1681H47.0193C47.2182 28.1681 47.3788 28.0032 47.3788 27.8028V24.5325C47.3788 24.4281 47.2945 24.3432 47.1909 24.3459C44.7521 24.4201 42.3813 24.4312 40.0788 24.3788C39.7383 24.3703 39.4904 24.2525 39.3404 24.0219C39.1468 23.7254 39.3131 23.3219 39.6673 23.2312C40.3346 23.061 41.0624 22.9703 41.8445 22.9592C43.1933 22.9401 44.5205 22.9152 45.8231 22.8823C46.3219 22.8712 46.6977 22.9592 47.044 22.9974C47.1313 23.0085 47.2182 22.9592 47.2566 22.8792C47.4802 22.4152 47.3082 22.0748 47.3192 21.6054C47.3382 20.7761 47.3492 20.3588 47.3466 20.3508C47.325 20.2054 47.1993 20.0983 47.0524 20.0952L36.7384 20.0899C36.5479 20.0899 36.3953 20.2437 36.3953 20.4357L36.3948 20.4361Z" fill="#21AEE3"/>
</g>
<defs>
<clipPath id="clip0_4401_27120">
<rect width="55" height="48" fill="white" transform="translate(0.120361)"/>
</clipPath>
</defs>
</svg>
