<svg width="86" height="48" viewBox="0 0 86 48" fill="none" xmlns="http://www.w3.org/2000/svg">
<path d="M60.4848 37.6582H20.6388C18.9512 37.6582 17.5784 36.2795 17.5784 34.5848V8.74749C17.5784 7.05327 18.9512 5.67505 20.6388 5.67505H27.3578V7.11149H20.6388C19.7401 7.11149 19.0092 7.84527 19.0092 8.74749V34.5853C19.0092 35.4879 19.7401 36.2222 20.6388 36.2222H60.4843C61.3835 36.2222 62.1148 35.4879 62.1148 34.5853V8.74749C62.1148 7.84527 61.3835 7.11149 60.4843 7.11149H53.7653V5.67505H60.4843C62.1724 5.67505 63.5457 7.05327 63.5457 8.74749V34.5853C63.5457 36.2799 62.1724 37.6586 60.4843 37.6586L60.4848 37.6582Z" fill="#1A2780"/>
<path d="M51.4442 47.9999H29.1069L29.122 42.4528H29.8356C32.8638 42.4528 35.327 39.9795 35.327 36.9399H36.7578C36.7578 40.5302 34.0321 43.4933 30.5488 43.8528L30.5413 46.5635H50.0169L50.0245 43.8524C46.543 43.4911 43.8195 40.5288 43.8195 36.9399H45.2503C45.2503 39.9799 47.714 42.4528 50.7416 42.4528H51.4588L51.4438 47.9999H51.4442Z" fill="#1A2780"/>
<path d="M54.4813 32.2316H26.6438V2.51289C26.6438 1.12711 27.767 0 29.1469 0H51.9782C53.3586 0 54.4813 1.12756 54.4813 2.51289V32.2311V32.2316ZM28.0742 30.7951H53.05V2.51289C53.05 1.91911 52.5688 1.43644 51.9778 1.43644H29.1464C28.555 1.43644 28.0742 1.91956 28.0742 2.51289V30.7947V30.7951Z" fill="#21AEE3"/>
<path d="M36.7876 17.4751H30.7991V11.4631H36.7876V17.4751ZM32.2299 16.0387H35.3568V12.8996H32.2299V16.0387Z" fill="#21AEE3"/>
<path d="M50.3256 11.7996H38.573V13.236H50.3256V11.7996Z" fill="#21AEE3"/>
<path d="M50.3256 15.7021H38.573V17.1386H50.3256V15.7021Z" fill="#21AEE3"/>
<path d="M36.7876 28.6734H30.7991V22.6614H36.7876V28.6734ZM32.2299 27.2369H35.3568V24.0978H32.2299V27.2369Z" fill="#21AEE3"/>
<path d="M50.3256 22.9978H38.573V24.4342H50.3256V22.9978Z" fill="#21AEE3"/>
<path d="M50.3256 26.9005H38.573V28.337H50.3256V26.9005Z" fill="#21AEE3"/>
<path d="M50.3256 7.35326H30.7991V3.55859H50.3256V7.35326ZM32.2299 5.91682H48.8948V4.99504H32.2299V5.91682Z" fill="#21AEE3"/>
</svg>
