<?xml version="1.0" encoding="utf-8"?>
<!-- Generator: Adobe Illustrator 24.0.1, SVG Export Plug-In . SVG Version: 6.00 Build 0)  -->
<svg version="1.1" id="Layer_1" xmlns="http://www.w3.org/2000/svg" xmlns:xlink="http://www.w3.org/1999/xlink" x="0px" y="0px"
	 viewBox="0 0 56 48" style="enable-background:new 0 0 56 48;" xml:space="preserve">
<style type="text/css">
	.st0{fill:#1A2780;}
	.st1{fill:#21AEE3;}
</style>
<path class="st0" d="M45.7,37.2H7.2c-1.6,0-3-1.3-3-3v-25c0-1.6,1.3-3,3-3h6.5v1.4H7.2c-0.9,0-1.6,0.7-1.6,1.6v25
	c0,0.9,0.7,1.6,1.6,1.6h38.5c0.9,0,1.6-0.7,1.6-1.6v-25c0-0.9-0.7-1.6-1.6-1.6h-6.5V6.3h6.5c1.6,0,3,1.3,3,3v25
	C48.6,35.9,47.3,37.2,45.7,37.2L45.7,37.2z"/>
<path class="st0" d="M36.9,47.2H15.3l0-5.4h0.7c2.9,0,5.3-2.4,5.3-5.3h1.4c0,3.5-2.6,6.3-6,6.7l0,2.6h18.8l0-2.6
	c-3.4-0.3-6-3.2-6-6.7h1.4c0,2.9,2.4,5.3,5.3,5.3h0.7L36.9,47.2L36.9,47.2z"/>
<path class="st1" d="M39.9,32H13V3.2c0-1.3,1.1-2.4,2.4-2.4h22.1c1.3,0,2.4,1.1,2.4,2.4V32L39.9,32z M14.3,30.6h24.1V3.2
	c0-0.6-0.5-1-1-1H15.4c-0.6,0-1,0.5-1,1V30.6L14.3,30.6z"/>
<path class="st1" d="M22.8,17.7H17v-5.8h5.8V17.7z M18.4,16.3h3v-3h-3V16.3z"/>
<path class="st1" d="M35.8,12.2H24.5v1.4h11.4V12.2z"/>
<path class="st1" d="M35.8,16H24.5v1.4h11.4V16z"/>
<path class="st1" d="M22.8,28.5H17v-5.8h5.8V28.5z M18.4,27.1h3v-3h-3V27.1z"/>
<path class="st1" d="M35.8,23H24.5v1.4h11.4V23z"/>
<path class="st1" d="M35.8,26.8H24.5v1.4h11.4V26.8z"/>
<path class="st1" d="M35.8,7.9H17V4.3h18.9V7.9z M18.4,6.5h16.1V5.6H18.4V6.5z"/>
</svg>
