<svg width="54" height="48" viewBox="0 0 54 48" fill="none" xmlns="http://www.w3.org/2000/svg">
<g clip-path="url(#clip0_4401_27101)">
<path d="M44.7701 38.7568V32.4622C44.7701 31.6102 43.4753 31.6097 43.4753 32.4622V38.7568C43.4753 39.6088 44.7701 39.6093 44.7701 38.7568Z" fill="#1A2780"/>
<path d="M44.77 21.6907V17.82C44.77 16.5943 43.7643 15.5969 42.5285 15.5969H41.0822C40.2257 15.5969 40.2253 16.8849 41.0822 16.8849H42.5285C43.0503 16.8849 43.4752 17.304 43.4752 17.82V21.6907C43.4752 22.5427 44.77 22.5431 44.77 21.6907Z" fill="#1A2780"/>
<path d="M3.13623 17.82V38.7569C3.13623 39.6089 4.43101 39.6094 4.43101 38.7569V17.82C4.43101 17.3045 4.8559 16.8849 5.37774 16.8849H8.45562C9.3121 16.8849 9.31255 15.5969 8.45562 15.5969H5.37774C4.14194 15.5969 3.13623 16.5938 3.13623 17.82Z" fill="#1A2780"/>
<path d="M41.5384 38.7569C41.5384 38.6392 41.5384 33.6885 41.5384 33.7765C41.5384 32.9245 40.2437 32.9241 40.2437 33.7765C40.2437 34.7938 40.2437 38.8627 40.2437 38.7569C40.2437 39.6089 41.5384 39.6094 41.5384 38.7569Z" fill="#1A2780"/>
<path d="M6.62915 21.7569V38.7031C6.62915 39.5551 7.92393 39.5555 7.92393 38.7031V21.7569C7.92393 21.4071 8.2121 21.1226 8.56685 21.1226C8.92159 21.1226 9.21423 20.8342 9.21423 20.4786C9.21423 19.2604 6.6296 19.8435 6.6296 21.7569H6.62915Z" fill="#1A2780"/>
<path d="M47.025 42.3165C47.025 41.5378 46.387 40.9049 45.6024 40.9049H29.7059C28.1395 40.9049 27.9201 42.5578 27.1655 42.5578H20.7493C20.0004 42.5578 19.7762 40.9049 18.2089 40.9049H2.3034C-0.681553 40.9049 1.15472 48 6.61574 48H41.291C44.4528 48 47.0254 45.4507 47.0254 42.3165H47.025ZM2.17562 42.3165C2.17562 42.0654 1.56487 42.2502 18.2089 42.1929C18.9594 42.1929 19.1819 43.8458 20.7493 43.8458H27.1655C28.7319 43.8458 28.9517 42.1929 29.7059 42.1929C46.1895 42.2498 45.7297 42.0729 45.7297 42.3165C45.7297 44.74 43.738 46.712 41.2901 46.712H6.61574C4.16737 46.712 2.17562 44.7405 2.17562 42.3165Z" fill="#1A2780"/>
<path d="M38.9539 20.4786C38.9539 20.8342 39.2438 21.1226 39.6012 21.1226C39.9587 21.1226 40.2442 21.4075 40.2442 21.7568V23.0053C40.2442 23.8573 41.5389 23.8577 41.5389 23.0053V21.7568C41.5389 19.8524 38.9543 19.2448 38.9543 20.4786H38.9539Z" fill="#1A2780"/>
<path d="M29.4259 0H12.9552C11.6604 0 10.6069 0.996 10.6069 2.22089V29.7147C10.6069 30.5667 11.9017 30.5671 11.9017 29.7147V2.22089C11.9017 1.70667 12.3744 1.288 12.9552 1.288H29.3285V6.416C29.3285 7.22978 30.0214 7.892 30.873 7.892H36.2715V23.8716C36.2715 24.7236 37.5662 24.724 37.5662 23.8716C37.5555 6.53778 37.585 7.22667 37.526 7.04933C37.2915 5.72978 36.5771 5.76178 31.0722 0.620889C30.6255 0.220444 30.0411 0 29.4254 0L29.4259 0ZM30.6232 6.416V1.95289L35.8068 6.604C31.2854 6.52844 30.6232 6.77289 30.6232 6.41556V6.416Z" fill="#1A2780"/>
<path d="M16.1604 20.1654C16.2475 20.1654 17.6852 20.1596 17.5985 20.1596C18.4532 20.1556 18.451 18.8716 17.5959 18.8716H17.5932L16.1577 18.8774C15.303 18.8814 15.3052 20.1654 16.1604 20.1654Z" fill="#1A2780"/>
<path d="M31.6357 18.8716C25.1292 18.8742 27.6325 18.8734 21.1269 18.876C20.2713 18.876 20.2704 20.164 21.1269 20.164C27.6334 20.1614 25.1301 20.1622 31.6357 20.1596C31.9931 20.1596 32.2826 19.8711 32.2826 19.5151C32.2826 19.1591 31.9926 18.8716 31.6352 18.8716H31.6357Z" fill="#1A2780"/>
<path d="M16.1603 23.9467C16.2475 23.9467 17.6852 23.9413 17.5985 23.9413C18.4519 23.9382 18.4523 22.6533 17.5958 22.6533C17.5087 22.6533 16.071 22.6587 16.1577 22.6587C15.8002 22.66 15.5116 22.9498 15.5129 23.3053C15.5143 23.66 15.8038 23.9467 16.1603 23.9467Z" fill="#1A2780"/>
<path d="M31.6357 22.6533C25.1292 22.656 27.6325 22.6551 21.1269 22.6573C20.2713 22.6573 20.2704 23.9453 21.1269 23.9453C27.6334 23.9427 25.1301 23.9435 31.6357 23.9413C31.9931 23.9413 32.2826 23.6529 32.2826 23.2969C32.2826 22.9409 31.9926 22.6533 31.6352 22.6533H31.6357Z" fill="#1A2780"/>
<path d="M23.5773 4.07157C20.7166 3.56846 17.9867 5.46624 17.4814 8.29557C16.9757 11.1267 18.8749 13.8351 21.7442 14.3382C24.6005 14.8382 27.3348 12.9431 27.8401 10.1138C27.9031 9.76357 27.6681 9.42935 27.316 9.36713C26.9693 9.30757 26.6279 9.53824 26.5654 9.88846C26.1838 12.02 24.1175 13.4471 21.9689 13.0698C19.7904 12.688 18.3781 10.6347 18.7556 8.52135C19.1376 6.39068 21.2 4.96135 23.3521 5.34046C23.7073 5.40224 24.0402 5.16846 24.1023 4.81824C24.1644 4.46757 23.9289 4.13379 23.5773 4.07202V4.07157Z" fill="#1A2780"/>
<path d="M21.4488 8.34632C20.8694 7.71565 19.9159 8.58588 20.4923 9.21432L21.9582 10.8139C22.2115 11.0903 22.6498 11.0952 22.9085 10.8205L26.5055 7.00899C27.0917 6.38765 26.1476 5.50677 25.5615 6.12765L22.4434 9.43121L21.4488 8.34632Z" fill="#1A2780"/>
<path d="M47.3757 22.9088C30.2832 29.3262 29.6849 29.4968 29.5227 29.6386L24.6488 33.9044C24.2025 34.2955 24.4804 35.0311 25.0759 35.0319C29.0934 35.0382 27.5515 35.0359 31.569 35.0422C31.7942 35.0422 30.6576 35.4111 49.4501 28.3906C50.1815 28.1168 50.5505 27.3075 50.2762 26.5826L49.1955 23.7262C48.9216 23.0031 48.1053 22.6351 47.3762 22.9088H47.3757ZM44.85 25.2306L46.0117 28.3008L31.9465 33.5679L30.7845 30.4973L44.85 25.2306ZM29.6746 31.2208L30.633 33.7524L26.7893 33.7462L29.6746 31.2208ZM48.9944 27.1848L47.2243 27.8475L46.0626 24.7773L47.8323 24.1146C48.0441 24.0319 47.9713 24.2928 49.0645 27.0364C49.0833 27.0875 49.0458 27.1657 48.9944 27.1848Z" fill="#21AEE3"/>
<path d="M52.133 25.268L51.7032 25.4289C50.9021 25.7289 51.3569 26.9351 52.1594 26.6347L52.5892 26.4738C53.7544 26.0369 54.3437 24.7484 53.9063 23.5924C53.4702 22.4395 52.1696 21.8555 51.0067 22.2907L50.5769 22.4515C49.7753 22.752 50.2315 23.9569 51.033 23.6573L51.4628 23.4964C51.9597 23.3115 52.5105 23.5582 52.6946 24.0462C52.8796 24.5355 52.6294 25.0822 52.133 25.268Z" fill="#21AEE3"/>
<path d="M11.983 34.8409C11.6493 35.6276 12.8444 36.1254 13.1759 35.3414C13.6755 34.1636 14.4814 33.1311 15.5077 32.3551C15.8428 32.1005 15.9598 32.124 15.9612 32.1249C15.9715 32.1285 16.0108 32.1538 16.0617 32.2218C16.3302 32.5796 16.3119 33.2 16.4312 33.8334C16.6135 34.7996 17.3346 35.7458 18.343 35.6645C19.3152 35.5938 19.7361 34.7049 20.165 34.2525C21.0715 36.0845 23.1843 34.7138 22.2144 33.8854C21.986 33.6907 21.6608 33.6818 21.4253 33.8431C21.1908 33.5765 21.2185 33.1218 20.7945 32.8729C20.6359 32.7809 20.3732 32.6969 20.0157 32.8249C19.4649 33.0218 19.1173 33.4716 18.8376 33.8325C18.5878 34.1556 18.4113 34.3685 18.2478 34.38C18.0414 34.3987 17.7827 34.0138 17.7036 33.5956C17.5835 32.964 17.6121 32.1382 17.1 31.4534C16.5916 30.7734 15.7481 30.5565 14.7232 31.3307C13.5177 32.2427 12.5701 33.4569 11.9826 34.8414L11.983 34.8409Z" fill="#21AEE3"/>
</g>
<defs>
<clipPath id="clip0_4401_27101">
<rect width="53" height="48" fill="white" transform="translate(0.879639)"/>
</clipPath>
</defs>
</svg>
