<svg width="50" height="48" viewBox="0 0 50 48" fill="none" xmlns="http://www.w3.org/2000/svg">
<g clip-path="url(#clip0_4401_27043)">
<path d="M10.1602 33.1671H5.91797V34.9929H10.1602V33.1671Z" fill="#1A2780"/>
<path d="M10.1602 39.6276H5.91797V41.4533H10.1602V39.6276Z" fill="#1A2780"/>
<path d="M43.9602 33.1671H39.718V34.9929H43.9602V33.1671Z" fill="#1A2780"/>
<path d="M43.9602 39.6276H39.718V41.4533H43.9602V39.6276Z" fill="#1A2780"/>
<path d="M23.6035 34.5875H19.3608V36.4133H23.6035V34.5875Z" fill="#1A2780"/>
<path d="M30.6817 34.5875H26.4395V36.4133H30.6817V34.5875Z" fill="#1A2780"/>
<path d="M23.6035 28.6244H19.3608V30.4502H23.6035V28.6244Z" fill="#1A2780"/>
<path d="M30.6817 28.6244H26.4395V30.4502H30.6817V28.6244Z" fill="#1A2780"/>
<path d="M23.6035 22.6614H19.3608V24.4872H23.6035V22.6614Z" fill="#1A2780"/>
<path d="M30.6817 22.6614H26.4395V24.4872H30.6817V22.6614Z" fill="#1A2780"/>
<path d="M34.8073 48H15.3098C14.8098 48 14.4041 47.5911 14.4041 47.0871V16.6355C14.4041 16.1315 14.8098 15.7227 15.3098 15.7227H34.8073C35.3074 15.7227 35.7131 16.1315 35.7131 16.6355V47.0875C35.7131 47.5915 35.3074 48.0004 34.8073 48.0004V48ZM16.2156 46.1742H33.9015V17.548H16.2156V46.1742Z" fill="#1A2780"/>
<path d="M49.0941 48H37.3831V46.1742H48.1884V30.4498H37.3831V28.624H49.0941C49.5942 28.624 49.9999 29.0329 49.9999 29.5369V47.0871C49.9999 47.5911 49.5942 48 49.0941 48Z" fill="#1A2780"/>
<path d="M12.702 48H0.905772C0.405701 48 0 47.5911 0 47.0871V29.5369C0 29.0329 0.405701 28.624 0.905772 28.624H12.702V30.4498H1.81154V46.1742H12.7024V48H12.702Z" fill="#1A2780"/>
<path d="M6.72927 17.2493H4.91772V4.15068C4.91772 3.86713 5.04825 3.60002 5.27139 3.42713C5.49408 3.25424 5.78425 3.19557 6.05589 3.26846L17.0548 6.21202C17.4517 6.31824 17.7282 6.68046 17.7282 7.09424V12.7165H15.9166V7.79646L6.72927 5.33779V17.2493Z" fill="#21AEE3"/>
<path d="M6.72927 17.2494H4.91772V26.0525H6.72927V17.2494Z" fill="#21AEE3"/>
<path d="M42.7979 25.7831H40.9863V9.18442H32.0388V12.5395H30.2273V8.27153C30.2273 7.76753 30.633 7.35864 31.1331 7.35864H41.8921C42.3921 7.35864 42.7979 7.76753 42.7979 8.27153V25.7831Z" fill="#21AEE3"/>
<path d="M34.6672 5.18089H32.8557V1.82578H16.8521V4.15067H15.0405V0.912889C15.0405 0.408889 15.4462 0 15.9463 0H33.7614C34.2615 0 34.6672 0.408889 34.6672 0.912889V5.18089Z" fill="#21AEE3"/>
</g>
<defs>
<clipPath id="clip0_4401_27043">
<rect width="50" height="48" fill="white"/>
</clipPath>
</defs>
</svg>
