<svg width="51" height="48" viewBox="0 0 51 48" fill="none" xmlns="http://www.w3.org/2000/svg">
<g clip-path="url(#clip0_4401_27093)">
<path d="M48.8183 9.89647C48.8183 9.85069 48.7804 9.81425 48.7345 9.81425H2.15758C2.11301 9.81425 2.07513 9.85025 2.07379 9.8947C2.04571 10.8063 2.031 12.0036 2.02922 13.4849C2.0212 21.4125 2.02922 29.3387 2.05061 37.2649C2.05239 37.8876 2.10009 38.3751 2.19056 38.7316C2.47715 39.8436 3.26428 40.6267 4.43381 40.7205C5.92783 40.8405 7.46909 40.7649 9.00277 40.804C9.40614 40.8138 9.73418 41.1276 9.76359 41.5285L9.76671 41.5596C9.79479 41.9423 9.49171 42.2676 9.10796 42.2707C6.93557 42.2823 5.44513 42.2823 4.63617 42.2707C3.93462 42.2609 3.246 42.072 2.56897 41.704C1.50685 41.1276 1.12265 40.3525 0.694767 39.2965C0.673373 39.2454 0.660002 39.1947 0.651979 39.1405C0.545009 38.4489 0.492416 37.8774 0.490633 37.4289C0.475925 31.2454 0.472359 20.4631 0.480827 5.08269C0.48261 4.09069 0.558381 3.38269 0.711259 2.96092C1.23229 1.52181 2.42946 0.392028 3.9627 0.0520278C4.2065 -0.0021944 4.5439 -0.01375 4.9758 0.0160278C5.21469 0.0306945 5.5521 0.0391389 5.99201 0.0404723C27.8036 0.0435834 41.3059 0.0453612 46.4975 0.0453612C46.9339 0.0453612 47.3689 0.147139 47.8021 0.352472C49.0653 0.95025 49.8706 1.84536 50.2183 3.03603C50.3271 3.41069 50.3814 4.47292 50.3797 6.22403C50.3681 20 50.3649 30.2747 50.3716 37.0462C50.3734 38.1005 50.3057 38.8414 50.1688 39.2698C49.7276 40.656 48.5647 41.6445 47.204 42.0863C46.8202 42.2111 46.1597 42.2702 45.2241 42.2654C44.1848 42.2574 41.2382 42.2556 36.3862 42.2605C36.0434 42.2605 35.8228 42.2111 35.7239 42.1125C35.5705 41.9596 35.4917 41.7578 35.4868 41.508C35.485 41.4307 35.5131 41.3569 35.5656 41.3009C35.8968 40.9494 36.2244 40.7738 36.5507 40.772C40.8049 40.7605 43.8224 40.7574 45.6043 40.764C46.3077 40.7671 47.0948 40.6391 47.635 40.1449C48.0749 39.7458 48.4043 39.312 48.6267 38.8458C48.653 38.7916 48.6695 38.7325 48.6762 38.6734C48.7586 37.9227 48.7996 37.412 48.7996 37.1409C48.8045 22.5845 48.8094 13.5022 48.8179 9.89558M2.22667 8.24269H48.6106C48.7359 8.24269 48.8362 8.14269 48.8362 8.01781V4.65736C48.8362 2.94447 47.4313 1.55514 45.697 1.55514H5.14026C3.40601 1.55514 2.00114 2.94447 2.00114 4.65736V8.01781C2.00114 8.14269 2.10142 8.24269 2.22667 8.24269Z" fill="#1A2780"/>
<path d="M7.31305 4.92492C7.31305 5.4307 6.903 5.83959 6.39578 5.83959C5.88857 5.83959 5.47852 5.4307 5.47852 4.92492C5.47852 4.41914 5.88857 4.01025 6.39578 4.01025C6.903 4.01025 7.31305 4.41914 7.31305 4.92492Z" fill="#1A2780"/>
<path d="M12.4088 4.92668C12.4088 5.42446 12.0036 5.82846 11.5044 5.82846C11.0052 5.82846 10.6001 5.42446 10.6001 4.92668C10.6001 4.4289 11.0052 4.0249 11.5044 4.0249C12.0036 4.0249 12.4088 4.4289 12.4088 4.92668Z" fill="#1A2780"/>
<path d="M17.4863 5.33821C17.2661 5.77732 16.7174 5.94799 16.2623 5.72088C15.8064 5.49288 15.6156 4.95288 15.8367 4.51465C16.0569 4.07554 16.6055 3.90488 17.0606 4.13199C17.5166 4.35999 17.7073 4.89999 17.4863 5.33821Z" fill="#1A2780"/>
<path d="M30.2514 27.956C31.3795 27.5057 32.4042 27.7128 33.3246 28.5751C33.9717 29.1826 34.1696 30.4062 34.1661 31.2306C34.1545 34.3133 34.1331 36.8164 34.1001 38.7395C34.0921 39.1484 34.0488 39.5573 33.9682 39.968C33.8411 40.6168 33.7591 41.0222 33.7213 41.1848C33.3014 42.9848 32.2999 44.9506 30.727 46.0497C29.5245 46.8875 28.4508 47.4866 27.0343 47.7315C25.8549 47.9368 24.7977 48.024 23.8635 47.9942C22.2608 47.9431 21.3832 47.9137 21.228 47.9022C21.0997 47.8924 20.8492 47.7822 20.6763 47.8053C20.5345 47.8248 20.1543 47.7644 19.5348 47.6231C17.7065 47.2057 15.7039 46.2204 14.4916 44.8031C14.111 44.3595 13.721 44.028 13.3849 43.5186C12.7672 42.5875 12.2319 41.5266 11.7759 40.3391C11.537 39.7164 11.3476 39.26 11.2045 38.9693C10.9442 38.4422 10.6313 37.8115 10.3893 37.1711C10.0434 36.2546 9.73724 35.4924 9.46848 34.8866C9.30357 34.5137 9.22958 34.0853 9.20016 33.7191C9.18367 33.504 9.00272 33.3364 8.78521 33.3364H6.58475C6.42519 33.3364 6.27498 33.264 6.1747 33.1395C5.69868 32.5484 5.74147 32.1933 5.73657 31.3262C5.72186 28.6213 5.71027 27.1742 5.69868 26.9888C5.62113 25.7306 6.50096 25.5617 7.55639 25.5582C9.67262 25.5502 12.0563 25.5466 14.706 25.5502C14.8442 25.5502 14.9565 25.4368 14.9565 25.2991V21.8155C14.9565 21.7564 14.9088 21.7088 14.8495 21.7071C11.0334 21.7004 8.42597 21.7053 7.0309 21.7235C6.60748 21.7284 6.3093 21.6808 6.13637 21.584C5.87429 21.4346 5.7067 21.2128 5.63227 20.9204C5.63049 20.9124 5.62915 20.9022 5.62915 20.8942L5.63584 14.3444C5.63584 14.3346 5.63762 14.3248 5.63896 14.3164C5.71294 14.0537 5.86448 13.8613 6.09358 13.7417C6.26651 13.6515 6.51032 13.6071 6.8232 13.6071C19.3917 13.6088 31.2703 13.6071 42.4585 13.6022C43.5273 13.6022 44.1138 13.6204 44.2177 13.6546C45.0414 13.9337 45.1269 14.8093 45.1269 15.6386C45.1287 17.0297 45.13 18.7213 45.1287 20.7168C45.1287 20.7728 45.1189 20.8302 45.1006 20.8844C44.9607 21.2933 44.6656 21.556 44.2195 21.6728C44.1949 21.6795 44.17 21.6826 44.1437 21.6826L20.9816 21.7351C20.8661 21.7368 20.7774 21.832 20.7841 21.9471C20.8733 23.2857 20.8813 24.5306 20.8086 25.68C20.8037 25.744 20.8728 25.7853 20.929 25.7537C21.2766 25.5551 21.6586 25.3906 22.0753 25.2626C22.3076 25.1902 22.5166 25.1462 22.706 25.128C22.7176 25.1262 22.7305 25.1297 22.7421 25.1346L23.9825 25.6666C23.9905 25.6697 23.9972 25.6746 24.0039 25.68C24.4519 26.0084 24.8026 26.3617 25.0562 26.7408C25.1088 26.8195 25.2109 26.8462 25.2951 26.8017C25.5786 26.6506 26.2044 26.2893 26.6688 26.2435C27.3325 26.176 27.9056 26.3093 28.3883 26.6426C28.4311 26.6724 28.4708 26.7066 28.5051 26.7444C28.7324 26.9875 28.9548 27.2435 29.1737 27.5128C29.4157 27.8102 29.5311 28.0222 29.5196 28.1466C29.5147 28.2026 29.5557 28.252 29.6118 28.2568C29.8422 28.2733 30.0152 28.2044 30.1306 28.0484C30.16 28.0075 30.2033 27.976 30.251 27.9564M7.26847 20.1906H14.8843C14.9271 20.1906 14.9632 20.1608 14.9716 20.12C15.1874 19.0231 15.8247 18.2871 16.8824 17.9142C17.686 17.6302 18.4669 17.6151 19.2259 17.8666C20.321 18.2297 20.6638 19.0542 20.8813 20.1017C20.8929 20.1591 20.9437 20.2004 21.0016 20.2004H43.4555C43.5295 20.2004 43.5906 20.1395 43.5906 20.0657V15.1746C43.5906 15.1204 43.546 15.076 43.4916 15.076H7.41332C7.29476 15.076 7.19938 15.1728 7.19938 15.2911V20.1231C7.19938 20.1608 7.23058 20.1902 7.26847 20.1902M28.8924 33.6728C28.4904 33.6893 28.1579 33.364 28.1677 32.9635C28.2056 31.3622 28.2319 30.2453 28.2484 29.6133C28.26 29.1813 28.2301 28.8724 28.1628 28.6871C27.9765 28.1831 27.4466 27.608 26.8698 27.6657C25.8505 27.7693 25.3428 28.3311 25.3482 29.3506C25.3531 30.6528 25.3415 31.5844 25.317 32.1426C25.3152 32.1804 25.3036 32.2164 25.284 32.2493C25.1177 32.5168 24.8771 32.688 24.5624 32.7586C24.5098 32.7702 24.4536 32.7666 24.4028 32.7488C23.9794 32.5995 23.7722 32.2711 23.7784 31.7635C23.8016 29.888 23.831 28.6284 23.8675 27.9844C23.8707 27.9271 23.8626 27.8693 23.8412 27.8168C23.5364 27.0333 22.965 26.6768 22.1266 26.7444C20.9557 26.8395 20.789 28.0466 20.8269 28.968C20.8764 30.1782 20.896 31.1866 20.888 31.9933C20.8862 32.0591 20.8733 32.1248 20.8483 32.184C20.7774 32.3497 20.6638 32.5173 20.5042 32.688C20.3772 32.8226 20.1797 32.8604 20.0148 32.78C19.2785 32.4204 19.369 32.0804 19.3757 31.228C19.4069 27.728 19.4216 24.7457 19.4185 22.2804C19.4185 21.7106 19.1453 21.1324 19.3726 20.5542C19.394 20.5 19.3971 20.4391 19.3824 20.3835C19.2259 19.8053 19.1141 19.4524 18.5917 19.308C17.9806 19.1386 17.4667 19.216 17.0469 19.5395C16.6136 19.8746 16.3979 20.2391 16.3961 20.6333C16.3863 26.2173 16.3912 31.3364 16.4126 35.9928C16.4144 36.2164 16.2892 36.3986 16.0387 36.5413C15.625 36.7795 15.2088 36.4822 15.034 36.1013C14.5433 35.0386 14.0967 34.1568 13.6933 33.4586C13.1665 32.5471 12.5519 31.8671 11.4202 32.3288C11.3641 32.352 11.3151 32.3848 11.2718 32.4275C10.8533 32.856 10.6674 33.2502 10.712 33.6115C10.8074 34.3737 11.0793 35.3195 11.4777 36.0537C11.8218 36.6875 12.0968 37.1737 12.3357 37.7751C12.9994 39.4435 13.6122 40.812 14.1769 41.8777C15.7022 44.7617 18.7887 46.3533 22.0615 46.4386C23.9326 46.488 25.1498 46.4862 25.7145 46.4319C27.6529 46.2462 29.2624 45.4808 30.5438 44.1377C31.2502 43.3968 31.7757 42.4626 32.1198 41.3342C32.4474 40.2533 32.6123 39.1862 32.6105 38.1297C32.6074 34.5315 32.6105 32.1973 32.6203 31.1315C32.6319 29.9555 32.1114 28.9702 30.7363 29.2822C30.6686 29.2968 30.6044 29.328 30.5487 29.3711C30.0165 29.7897 29.7464 30.3564 29.7384 31.0711C29.7286 31.9364 29.717 32.5493 29.7023 32.9088C29.6858 33.3226 29.3546 33.656 28.9397 33.6724L28.892 33.6742M14.9699 32.648V27.1791C14.9699 27.1315 14.932 27.0937 14.8843 27.0937H7.35226C7.28139 27.0937 7.22389 27.1511 7.22389 27.2217V31.7417C7.22389 31.8057 7.27649 31.8582 7.34067 31.8582H9.56431C9.60041 31.8582 9.63696 31.8466 9.66638 31.8253C9.78984 31.7333 9.86739 31.6511 9.90171 31.5773C9.92489 31.5315 9.97079 31.5035 10.0221 31.5017C10.1143 31.5017 10.1754 31.4822 10.2048 31.4444C10.5195 31.0373 10.9558 30.7906 11.5174 30.7053C11.9587 30.6395 12.8006 30.5986 13.2534 30.8808C14.0192 31.3555 14.5647 31.9502 14.8887 32.6644C14.907 32.7053 14.9694 32.6924 14.9694 32.648H14.9699Z" fill="#21AEE3"/>
<path d="M45.2064 26.3751C45.2064 26.78 44.8752 27.1084 44.4687 27.108L37.4591 27.096C37.0517 27.0956 36.7241 26.7653 36.7241 26.3604V26.3307C36.7241 25.9258 37.0553 25.5973 37.4618 25.5978L44.4714 25.6098C44.8788 25.6102 45.2064 25.9404 45.2064 26.3453V26.3751Z" fill="#1A2780"/>
<path d="M45.1585 32.6075C45.1572 33.0124 44.8242 33.3395 44.4187 33.3378L37.4518 33.3013C37.0457 33.3 36.7177 32.968 36.7195 32.5635V32.5306C36.7213 32.1258 37.0538 31.7986 37.4598 31.8004L44.4267 31.8369C44.8327 31.8382 45.1608 32.1702 45.159 32.5746V32.6075H45.1585Z" fill="#1A2780"/>
</g>
<defs>
<clipPath id="clip0_4401_27093">
<rect width="50" height="48" fill="white" transform="translate(0.379639)"/>
</clipPath>
</defs>
</svg>
